<svg xmlns="http://www.w3.org/2000/svg" width="296.996" height="336.276" viewBox="0 0 296.996 336.276"><path d="M209.771,35.165l48.083,27.805,48.208,27.754c26.892,15.534,25.8,13.788,25.8,44.871V246.728c0,31.076,1.009,29.3-25.964,44.812L257.853,319.3l-48.142,27.835c-26.958,15.519-24.888,15.519-51.78-.037l-48.053-27.8L61.67,291.533c-26.914-15.5-25.794-13.81-25.794-44.9V135.507c0-31.076-1.016-29.278,25.964-44.812l48.038-27.724,48.134-27.835c26.951-15.527,24.888-15.527,51.758.029M198.582,304.622c-14.812,8.61-14.694,8.478-31.606-1.311-11.977-6.894-23.923-13.8-35.937-20.683-11.674-6.754-23.268-13.45-34.928-20.189-18.1-10.437-17.921-9-17.921-29.853V150.8c0-20.882-1.09-19.99,16.9-30.442,4.434-2.519,8.831-5.068,13.221-7.609,5.694-3.278,6.2.788,7.874,5.266v88.63c0,16.4.088,18.871,11.048,24.94.53.25,1.061.582,1.643.869,8.559,4.655,17.191,9.325,25.765,13.987,6.747,3.617,8.581.022,8.581-5.775V214.12c0-6.438,4.8-5.694,8.515-3.536l26.973,15.659c4.206,2.438,5.8,6.091,5.8,11.358v55.625C204.511,299.819,204.077,301.4,198.582,304.622ZM169.164,77.65c14.8-8.618,14.687-8.485,31.591,1.3,11.984,6.9,23.938,13.788,35.959,20.683,11.66,6.754,23.253,13.457,34.92,20.182,18.09,10.452,17.913,9.023,17.913,29.868v81.78c0,20.881,1.09,19.99-16.9,30.435-4.434,2.526-8.839,5.075-13.221,7.609-5.686,3.285-6.195-.773-7.867-5.259V175.62c0-16.4-.1-18.871-11.056-24.933-.53-.265-1.061-.589-1.643-.877L213.1,135.831c-6.74-3.624-8.581-.029-8.581,5.767v26.546c0,6.438-4.788,5.686-8.522,3.528l-26.973-15.659c-4.2-2.431-5.8-6.077-5.8-11.35V89.037C163.227,82.445,163.662,80.869,169.164,77.65Z" transform="translate(-35.371 -22.995)" fill="none" stroke="#fff" stroke-width="1" fill-rule="evenodd" opacity="0.226"></path></svg>