<svg xmlns="http://www.w3.org/2000/svg" id="Layer_1" height="512" viewBox="0 0 480 480" width="512"><path d="m220 157v-116c0-12.131-9.869-22-22-22h-176c-12.131 0-22 9.869-22 22v116c0 12.131 9.869 22 22 22h176c12.131 0 22-9.869 22-22zm-204 0v-12.073l43.873-29.51c2.609-1.755 6.021-1.816 8.691-.154l26.642 16.577c8.585 5.341 19.672 4.708 27.594-1.573l40.953-32.481c2.497-1.98 5.926-2.291 8.736-.791 3.896 2.079 8.744.604 10.823-3.293 2.079-3.898.604-8.745-3.294-10.824-8.432-4.497-18.719-3.566-26.208 2.372l-40.953 32.481c-2.64 2.095-6.336 2.305-9.198.524l-26.642-16.577c-8.013-4.985-18.247-4.802-26.074.463l-34.943 23.503v-84.644c0-3.309 2.691-6 6-6h176c3.309 0 6 2.691 6 6v116c0 3.309-2.691 6-6 6h-176c-3.309 0-6-2.691-6-6zm94-101c-8.271 0-15 6.729-15 15s6.729 15 15 15 15-6.729 15-15-6.729-15-15-15zm-1 15c0-1.322 2-1.322 2 0s-2 1.322-2 0zm371 284.87v69.261c0 19.779-16.091 35.87-35.869 35.87h-40.131c-4.418 0-8-3.582-8-8v-51h-171c-4.418 0-8-3.582-8-8s3.582-8 8-8h179c4.724 0 8.541 4.118 7.931 9 .108.862.069-2.344.069 50h32.131c10.956 0 19.869-8.914 19.869-19.87v-69.261c0-10.956-8.913-19.87-19.869-19.87h-12.262c-10.956 0-19.869 8.914-19.869 19.87v7.13c0 4.418-3.582 8-8 8s-8-3.582-8-8v-7.13c0-18.471 14.035-33.722 32-35.658v-52.375c0-14.798-12.039-26.837-26.837-26.837h-100.163v90c0 4.418-3.582 8-8 8s-8-3.582-8-8v-90h-102.163c-14.798 0-26.837 12.039-26.837 26.837v19.163c0 4.418-3.582 8-8 8s-8-3.582-8-8v-19.163c0-23.62 19.217-42.837 42.837-42.837h218.326c23.62 0 42.837 19.217 42.837 42.837v52.163c20.182 0 36 16.311 36 35.87zm-109 97.13c0 4.418-3.582 8-8 8-7.233 0-209.769 0-221.131 0-19.778 0-35.869-16.091-35.869-35.87v-69.26c0-19.779 16.091-35.87 35.869-35.87h12.262c19.778 0 35.869 16.091 35.869 35.87v45.13c0 4.418-3.582 8-8 8s-8-3.582-8-8v-45.13c0-10.956-8.913-19.87-19.869-19.87h-12.262c-10.956 0-19.869 8.914-19.869 19.87v69.261c0 10.956 8.913 19.87 19.869 19.87h221.131c4.418-.001 8 3.581 8 7.999z"></path></svg>