<svg xmlns="http://www.w3.org/2000/svg" id="outline" viewBox="0 0 340 340" width="512" height="512"><path d="M272.071,49.747a3.481,3.481,0,1,0,6.962-.091c-.236-18.042-6.032-29.89-6.279-30.385a3.482,3.482,0,0,0-5.739-.74c-9.268,10.61-15.293,21.4-18.01,32.167a81.989,81.989,0,0,0-19.7-19.919,3.483,3.483,0,0,0-5.339,2.24c-4.579,23.6-2.06,41.861,7.49,54.289a36.833,36.833,0,0,0,4.741,5.093,3.462,3.462,0,0,0-3.322,3.818l4.046,39.924a13.68,13.68,0,0,0,1.69,5.324H187.733c3.6-6.282,8.291-17.636,8.291-34.119a54.918,54.918,0,0,0-9.065-30.926,13.293,13.293,0,0,1-.828-13.356,26.312,26.312,0,0,0,3.049-11.775,3.482,3.482,0,0,0-3.482-3.482H154.3a3.482,3.482,0,0,0-3.482,3.482,26.312,26.312,0,0,0,3.049,11.775,13.293,13.293,0,0,1-.828,13.356,54.918,54.918,0,0,0-9.065,30.926c0,16.483,4.695,27.837,8.291,34.119H111a3.481,3.481,0,0,0-3.482,3.482v7.187a15.748,15.748,0,0,0,15.73,15.729h13.128l2.914,16.373a12.519,12.519,0,0,0,24.651,0l2.914-16.373H273.313l2.915,16.373a12.519,12.519,0,0,0,24.651,0l2.914-16.373h13.129a15.747,15.747,0,0,0,15.729-15.729v-7.187a3.481,3.481,0,0,0-3.482-3.482H284.944a13.673,13.673,0,0,0,1.689-5.324l4.046-39.924a3.482,3.482,0,0,0-3.464-3.833h-1.936c17.571-16.72,12.7-45.244,12.447-46.626a3.482,3.482,0,0,0-6.235-1.439,62.694,62.694,0,0,1-16.848,15.371A59.4,59.4,0,0,0,264.8,67.53a3.482,3.482,0,0,0,4.922,4.927,52.4,52.4,0,0,1,8.687-6.909A75.551,75.551,0,0,0,291.514,55c.168,10.614-2.073,28.975-18.142,37.385H262.623a70.708,70.708,0,0,0-8.136-32.7c.975-10.56,5.692-21.322,14.041-32.056A76.01,76.01,0,0,1,272.071,49.747Zm-121.132,57.6a47.985,47.985,0,0,1,7.882-27.043,20.267,20.267,0,0,0,1.272-20.363,22.744,22.744,0,0,1-1.9-5.17h23.622a22.744,22.744,0,0,1-1.9,5.17,20.267,20.267,0,0,0,1.272,20.363,47.985,47.985,0,0,1,7.882,27.043c0,19.2-7.081,30.642-9.612,34.119h-18.91C158,138.016,150.939,126.691,150.939,107.348Zm6.146,75.67a5.555,5.555,0,0,1-10.939,0l-2.7-15.153h16.334Zm136.938,0a5.556,5.556,0,0,1-10.94,0l-2.7-15.153H296.72Zm31.664-30.882a8.775,8.775,0,0,1-8.765,8.765H123.248a8.775,8.775,0,0,1-8.766-8.765V148.43H325.687Zm-75.175-10.669a6.684,6.684,0,0,1-6.667-6.026l-3.657-36.092h43.175l-3.658,36.092a6.682,6.682,0,0,1-6.667,6.026Zm-1.065-49.081c-3.31-1.014-25.942-9.573-19.621-52.369,8.333,7.166,25.68,25.319,25.836,52.369Z"></path><path d="M23.078,295.961H36.207l2.914,16.374a12.519,12.519,0,0,0,24.651,0l2.914-16.374H173.145l2.914,16.374a12.519,12.519,0,0,0,24.651,0l2.914-16.374h13.128a15.748,15.748,0,0,0,15.73-15.729v-7.187A3.482,3.482,0,0,0,229,269.563H215.61V252.318c0-.062-.015-.12-.018-.182s.018-.119.018-.181V234.8a3.482,3.482,0,0,0-3.482-3.482H149.492a3.482,3.482,0,0,0-3.482,3.482v14.04h-28.8a3.482,3.482,0,0,0-3.482,3.482v10.363a3.482,3.482,0,1,0,6.964,0V255.8h87.953v13.764H91.236v-87.5a3.482,3.482,0,0,0-3.482-3.482H70.368a3.482,3.482,0,0,0-3.482,3.482v33.775H53.152V196.547a3.482,3.482,0,0,0-3.482-3.482h-20.7a3.482,3.482,0,0,0-3.482,3.482v73.016H10.831a3.482,3.482,0,0,0-3.482,3.482v7.187A15.747,15.747,0,0,0,23.078,295.961Zm129.9-57.683h55.672v10.2H152.974ZM56.917,311.115a5.556,5.556,0,0,1-10.94,0l-2.7-15.154H59.613Zm136.937,0a5.555,5.555,0,0,1-10.939,0l-2.7-15.154h16.333ZM73.85,185.54H84.272v84.023H73.85Zm-41.4,14.489H46.188v59.579a3.482,3.482,0,0,0,6.964,0V222.8H66.886v46.767H32.454Zm-18.141,76.5H225.518v3.705A8.775,8.775,0,0,1,216.752,289H23.078a8.775,8.775,0,0,1-8.765-8.765Z"></path></svg>