<svg xmlns="http://www.w3.org/2000/svg" viewBox="0 0 512 512"><g id="_x32_8_Chair"><g><path d="m390.708 249.597c29.899-75.478 2.758-185.094-30.891-217.4-9.566-15.597-20.36-25.181-30.944-25.181-38.589 0-54.642 129.641-58.642 169.374-1.583 15.719-14.208 28.134-30.017 29.519-89.917 7.881-131.796 23.044-131.796 47.721 0 11.292 5.573 21.062 15.118 29.272 5.263 12.556 17.804 22.478 34.531 29.953-6.614 36.396-28.703 179.77-29.739 186.503-.377 2.453 1.144 4.796 3.533 5.452 2.377.653 4.892-.576 5.821-2.889 2.537-6.309 56.368-140.348 69.35-175.32 11.343 1.85 23.114 3.069 34.872 3.676 15.045 39.857 65.52 165.54 67.974 171.644.929 2.315 3.446 3.542 5.821 2.889 2.389-.656 3.909-2.999 3.533-5.452-.925-6.007-18.606-120.768-27.108-171.312 8.376-1.424 16.129-3.371 23.271-5.795 25.468 42.057 63.702 104.129 66.04 107.926 1.304 2.115 3.986 2.91 6.227 1.862 2.246-1.051 3.347-3.619 2.56-5.971-1.428-4.273-25.02-74.737-40.994-121.241 21.355-15.765 34.025-36.402 41.48-55.23zm-272.526 4.033c0-10.167 15.962-28.625 122.88-37.995 20.482-1.795 36.835-17.888 38.885-38.267 9.368-93.05 29.945-160.588 48.925-160.588 6.76 0 15.031 7.775 22.991 21.024.009.015.009.032.018.046 41.287 68.613 53.651 228.697-57.531 260.785-42.527 12.296-130.266 5.344-163.563-22.182-.258-.215-.559-.339-.847-.493-7.441-6.427-11.758-13.881-11.758-22.33zm26.332 205.003c8.307-53.407 18.533-118.15 22.786-142.046 9.2 3.363 19.329 6.104 29.994 8.246-8.531 22.754-32.72 83.641-52.78 133.8zm158.532 0c-18.538-46.352-40.596-101.854-50.572-127.974 9.763.205 17.827.105 29.987-1.272 4.976 29.629 13.482 83.58 20.585 129.246zm64.292-70.036c-13.886-22.635-29.898-48.814-42.645-69.843 5.811-2.469 11.182-5.251 16.147-8.291 8.009 23.366 17.946 52.74 26.498 78.134zm-107.648-67.617c-42.847 0-80.935-7.933-104.406-20.51 37.64 13.707 101.039 19.641 142.931 7.251 38.454-11.429 65.295-37.125 79.944-74.299 10.601-26.728 16.369-63.967 10.791-108.761 7.361 38.86 7.578 83.738-7.318 121.341-19.706 49.753-60.736 74.978-121.942 74.978z"></path><path d="m342.999 216.274c.93-2.532-.367-5.337-2.899-6.265-2.522-.932-5.335.369-6.265 2.899-13.235 36.036-40.744 52.82-86.58 52.82-37.249 0-62.046-6.534-73.512-10.429-2.555-.863-5.325.503-6.193 3.051-.863 2.553.501 5.325 3.056 6.193 12.033 4.088 37.998 10.949 76.649 10.949 50.485 0 80.907-18.818 95.744-59.218z"></path></g></g><g id="Layer_1"></g></svg>