<svg xmlns="http://www.w3.org/2000/svg" id="Layer_1" height="512" viewBox="0 0 512 512" width="512" data-name="Layer 1"><g id="Layer_1-2" data-name="Layer_1"><g id="_256581984" data-name=" 256581984"><g id="_515979528" data-name=" 515979528"><path d="m468.26 470.37h-44a18.76 18.76 0 0 1 -18.73-18.74v-115.19a18.75 18.75 0 0 1 18.73-18.73h44a18.76 18.76 0 0 1 18.74 18.73v115.19a18.77 18.77 0 0 1 -18.74 18.74zm-44-140.66a6.74 6.74 0 0 0 -6.73 6.73v115.19a6.74 6.74 0 0 0 6.73 6.74h44a6.74 6.74 0 0 0 6.74-6.74v-115.19a6.74 6.74 0 0 0 -6.74-6.73z"></path></g><g id="_515979696" data-name=" 515979696"><path d="m237.12 470.37h-44a18.76 18.76 0 0 1 -18.74-18.74v-115.19a18.75 18.75 0 0 1 18.74-18.73h44a18.75 18.75 0 0 1 18.74 18.73v115.19a18.76 18.76 0 0 1 -18.74 18.74zm-44-140.66a6.74 6.74 0 0 0 -6.74 6.73v115.19a6.74 6.74 0 0 0 6.74 6.74h44a6.74 6.74 0 0 0 6.74-6.74v-115.19a6.74 6.74 0 0 0 -6.74-6.73z"></path></g><g id="_515979504" data-name=" 515979504"><path d="m411.52 459.19h-161.66a6 6 0 0 1 -6-6v-56.66a28.44 28.44 0 0 1 28.41-28.41h116.84a28.44 28.44 0 0 1 28.41 28.41v56.66a6 6 0 0 1 -6 6zm-155.66-12h149.66v-50.66a16.43 16.43 0 0 0 -16.41-16.41h-116.84a16.43 16.43 0 0 0 -16.41 16.41z"></path></g><g id="_515979648" data-name=" 515979648"><path d="m446.26 329.71a6 6 0 0 1 -6-6v-75.32c0-10.76-10.35-19.51-23.07-19.51h-173c-12.72 0-23.07 8.75-23.07 19.51v75.32a6 6 0 0 1 -12 0v-75.32c0-17.38 15.73-31.51 35.07-31.51h173c19.34 0 35.07 14.13 35.07 31.51v75.32a6 6 0 0 1 -6 6z"></path></g><g id="_515979552" data-name=" 515979552"><path d="m330.69 345.67a6 6 0 0 1 -4.47-2l-36.87-41.17a6 6 0 0 1 0-8l36.87-41.17a6 6 0 0 1 8.94 0l36.84 41.17a6 6 0 0 1 0 8l-36.87 41.17a6 6 0 0 1 -4.44 2zm-28.82-47.17 28.82 32.17 28.81-32.17-28.81-32.18z"></path></g><g id="_515979624" data-name=" 515979624"><path d="m274.32 270.27h-28.32a6 6 0 0 1 0-12h28.36a6 6 0 0 1 0 12z"></path></g><g id="_515979432" data-name=" 515979432"><path d="m415.42 270.27h-28.36a6 6 0 1 1 0-12h28.36a6 6 0 1 1 0 12z"></path></g><g id="_515978808" data-name=" 515978808"><path d="m359.4 411.55h-57.4a6 6 0 0 1 0-12h57.4a6 6 0 0 1 0 12z"></path></g><g id="_515978280" data-name=" 515978280"><path d="m148 470.37h-74.63a6 6 0 0 1 -6-6v-36.09a6 6 0 0 1 6-6h74.63a6 6 0 0 1 6 6v36.09a6 6 0 0 1 -6 6zm-68.6-12h62.6v-24.09h-62.63z"></path></g><g id="_515978376" data-name=" 515978376"><path d="m129.32 434.28h-37.32a6 6 0 0 1 -6-6v-259.28a6 6 0 0 1 6-6h37.3a6 6 0 0 1 6 6v259.28a6 6 0 0 1 -5.98 6zm-31.3-12h25.3v-247.28h-25.32z"></path></g><g id="_515978760" data-name=" 515978760"><path d="m190.34 175h-159.34a6 6 0 0 1 -5.64-8l44.21-121.42a6 6 0 0 1 5.64-3.95h70.92a6 6 0 0 1 5.64 3.95l44.23 121.42a6 6 0 0 1 -5.63 8.05zm-150.77-12h142.2l-39.84-109.37h-62.52z"></path></g><g id="_515978736" data-name=" 515978736"><path d="m139.3 175h-57.3a6 6 0 0 1 -6-6.78l16-121.37a6 6 0 0 1 6-5.22h25.48a6 6 0 0 1 6 5.22l15.89 121.4a6 6 0 0 1 -6.07 6.75zm-50.43-12h43.59l-14.31-109.37h-15z"></path></g><g id="_515978328" data-name=" 515978328"><path d="m481 175h-225.31a6 6 0 0 1 -6-6v-121.37a6 6 0 0 1 6-6h225.31a6 6 0 0 1 6 6v121.37a6 6 0 0 1 -6 6zm-219.31-12h213.31v-109.37h-213.31z"></path></g><g id="_256583472" data-name=" 256583472"><path d="m392 175a6 6 0 0 1 -5.58-3.8l-24.95-63.2-32.83 27.62a6 6 0 0 1 -8.72-1.07l-23.48-32.35-36.15 43.3a6 6 0 0 1 -9.21-7.7l41.08-49.17a6 6 0 0 1 9.46.33l24.23 33.37 34.28-28.84a6 6 0 0 1 9.44 2.39l28 71a6 6 0 0 1 -3.38 7.78 5.88 5.88 0 0 1 -2.19.34z"></path></g><g id="_256582464" data-name=" 256582464"><path d="m377.29 137.77a6 6 0 0 1 -3.77-10.68c29.21-23.51 48.57-14.78 64.13-7.77 13.55 6.1 23.34 10.52 39.24-4.44a6 6 0 1 1 8.22 8.73c-21.74 20.46-38 13.12-52.4 6.65s-28.19-12.71-51.66 6.18a6 6 0 0 1 -3.76 1.33z"></path></g><g id="_256582272" data-name=" 256582272"><path d="m441.13 107.89a21.76 21.76 0 1 1 21.75-21.75 21.77 21.77 0 0 1 -21.75 21.75zm0-31.51a9.76 9.76 0 1 0 9.75 9.76 9.77 9.77 0 0 0 -9.75-9.76z"></path></g></g></g></svg>