<svg xmlns="http://www.w3.org/2000/svg" viewBox="0 0 96 96" width="512" height="512"><g><circle cx="75" cy="43" r="1"></circle><circle cx="37" cy="43" r="1"></circle><circle cx="47" cy="41" r="1"></circle><circle cx="56" cy="41" r="1"></circle><circle cx="65" cy="41" r="1"></circle><circle cx="51.5" cy="35" r="1"></circle><circle cx="60.5" cy="35" r="1"></circle><circle cx="63" cy="11" r="1"></circle><path d="M31,43V57a1,1,0,0,0,1,1H42a1,1,0,0,0,1-1H69a1,1,0,0,0,1,1H80a1,1,0,0,0,1-1V43a6.0046,6.0046,0,0,0-5-5.91A9.0122,9.0122,0,0,0,67,28H45a9.0124,9.0124,0,0,0-9,9.09A6.0046,6.0046,0,0,0,31,43ZM43,55V48H69v7ZM79,43V56H71V43A4,4,0,0,1,79,43ZM45,30H67a7.0109,7.0109,0,0,1,7,7.09A6.0046,6.0046,0,0,0,69,43v3H43V43a6.0046,6.0046,0,0,0-5-5.91A7.0107,7.0107,0,0,1,45,30ZM33,43a4,4,0,0,1,8,0c0,2.6059,0,10.2863,0,13H33Z"></path><path d="M88,37H84a1,1,0,0,0,0,2h4a2.0027,2.0027,0,0,1,2,2V51a5.1638,5.1638,0,0,0-6,5V66a5.1642,5.1642,0,0,0,6,5V81a2.0027,2.0027,0,0,1-2,2H15V39h4a1,1,0,0,0,0-2H8a4.0042,4.0042,0,0,0-4,4V86a4.0042,4.0042,0,0,0,4,4H88a4.0039,4.0039,0,0,0,4-4V41A4.0039,4.0039,0,0,0,88,37Zm1,32a3.0033,3.0033,0,0,1-3-3V56a3.0033,3.0033,0,0,1,3-3h1V69ZM6,41a2.0023,2.0023,0,0,1,2-2h5V83H8a2.0023,2.0023,0,0,1-2-2ZM88,88H8a2.0023,2.0023,0,0,1-2-2V84.4437A3.9551,3.9551,0,0,0,8,85H88a3.9545,3.9545,0,0,0,2-.5562V86A2.0027,2.0027,0,0,1,88,88Z"></path><path d="M15.5,33H22V49.0577c-7.2869.894-6.207,7.9386,1,7.9423,7.2072-.004,8.2865-7.0487,1-7.9423V33h6.5a1,1,0,0,0,.9487-1.3164l-4-12A1,1,0,0,0,26.5,19h-7a1,1,0,0,0-.9487.6836l-4,12A1.0071,1.0071,0,0,0,15.5,33ZM27,53c0,.9443-1.71,2-4,2-4.4644-.0917-5.6265-3.1543-1-3.9231V53a1,1,0,0,0,2,0V51.0769C25.7666,51.3274,27,52.2,27,53ZM20.2207,21h5.5586l3.3335,10H16.8872Z"></path><path d="M9.4453,66a1,1,0,0,0,1-1V57a1,1,0,0,0-2,0v8A1,1,0,0,0,9.4453,66Z"></path><path d="M44,24H68a1,1,0,0,0,1-1V7a1,1,0,0,0-1-1H44a1,1,0,0,0-1,1V23A1,1,0,0,0,44,24ZM67,8V22H45V15.8881l4.8174-3.517L52.3566,15.54l-2.5441,2.4065a1,1,0,0,0,1.375,1.4531l5.8057-5.4922,5.6884,5.4854a1,1,0,1,0,1.3887-1.44l-6.376-6.1484a.9985.9985,0,0,0-1.3818-.0068l-2.4984,2.3632L50.78,10.375a.9992.9992,0,0,0-1.37-.1826L45,13.412V8Z"></path><path d="M58,65a1,1,0,0,0-1-1H22.5a1,1,0,0,0,0,2H57A1,1,0,0,0,58,65Z"></path><path d="M72,72a1,1,0,0,0-1-1H36.5a1,1,0,0,0,0,2H71A1,1,0,0,0,72,72Z"></path><path d="M79,65a1,1,0,0,0-1-1H66a1,1,0,0,0,0,2H78A1,1,0,0,0,79,65Z"></path><path d="M39,78a1,1,0,0,0,0,2H51a1,1,0,0,0,0-2Z"></path><path d="M19,71a1,1,0,0,0,0,2H30a1,1,0,0,0,0-2Z"></path><path d="M29,37H27a1,1,0,0,0,0,2h2A1,1,0,0,0,29,37Z"></path><path d="M74,17h6a1,1,0,0,0,0-2H74A1,1,0,0,0,74,17Z"></path><path d="M74,20a1,1,0,0,0,1,1h8a1,1,0,0,0,0-2H75A1,1,0,0,0,74,20Z"></path><path d="M22,10h6a1,1,0,0,0,0-2H22A1,1,0,0,0,22,10Z"></path><path d="M22,13a1,1,0,0,0,1,1h8a1,1,0,0,0,0-2H23A1,1,0,0,0,22,13Z"></path></g></svg>