<svg xmlns="http://www.w3.org/2000/svg" id="Layer_25" viewBox="0 0 64 64" data-name="Layer 25"><path d="m61.498 13.9935c-.0013-.0903-.0317-.1737-.0779-.2496-.0106-.0174-.0209-.0315-.0335-.0475-.0543-.0695-.1205-.1304-.2089-.1642l-29-11c-.0714-.0259-.1442-.0316-.2155-.0258-.0267.0021-.0504.0117-.0765.018-.0467.0113-.0902.0262-.1317.0499-.0121.007-.0267.0065-.0383.0145-.0121.0084-.0173.0229-.0286.0323-.0377.0306-.0682.067-.0961.1085-.014.0212-.0291.0395-.0398.0626-.0052.011-.0146.0185-.0191.03-.0175.0462-.0195.0933-.0229.1401-.001.0131-.0093.0244-.0093.0377v31.6766l-28.704 12.8673c-.1807.0801-.2959.2588-.2959.4561s.1152.376.2959.4561l29 13c.0645.0293.1348.0439.2041.0439s.1396-.0146.2041-.0439l29-13c.1807-.0801.2959-.2588.2959-.4561v-34c0-.0024-.002-.0041-.002-.0065zm-7.998 30.0963-12.4703-5.5898h10.9703c.2764 0 .5-.2236.5-.5s-.2236-.5-.5-.5h-12.5v-24.1162l14 5.3018zm-9.0292-2.9517-5.6245 2.5214-12.4709-5.5903 5.6246-2.5214zm2.8131 12.4627c-.0267-.019-.0487-.043-.0798-.0569l-7.1361-3.199 5.6241-2.5215 7.2401 3.2455zm-6.8224 3.0583-14.0861-6.3144 5.6245-2.5215 14.0861 6.3146zm-29.3933-5.5904 7.2397-3.2454 12.4713 5.5905-7.2405 3.2452zm7.2403-9.3832 12.47 5.5901-5.6245 2.5215-12.4703-5.5901zm6.8454-3.0687 5.6241 2.5211-5.6237 2.5214-5.6245-2.5214 5.624-2.5212zm13.6927 11.1806-12.4709-5.5906 5.6237-2.5214 12.4713 5.5905zm-27.3844-5.0428 5.6243 2.5212-7.2397 3.2454-5.624-2.5212 7.2395-3.2454zm20.5378 15.6975-7.2398-3.2455 7.2405-3.2452 7.2393 3.2452-7.2401 3.2455zm22.1537-9.9307-14.0859-6.3143 5.6245-2.5215 14.0861 6.3144-5.6246 2.5214zm.3463-5.9834v-26.1982c0-.208-.1289-.3936-.3232-.4678l-15-5.6797c-.1523-.0576-.3252-.0361-.4609.0566-.1348.0928-.2158.2471-.2158.4111v24.7059l-6-2.6895v-30.9515l5.9341 2.2507 22.0659 8.37v32.882l-6-2.6895z"></path><path d="m3 26.4834c.2764 0 .5-.2236.5-.5v-1c0-.2764-.2236-.5-.5-.5s-.5.2236-.5.5v1c0 .2764.2236.5.5.5z"></path><path d="m3 32.4834c.2764 0 .5-.2236.5-.5v-1c0-.2764-.2236-.5-.5-.5s-.5.2236-.5.5v1c0 .2764.2236.5.5.5z"></path><path d="m3 17.4834c.2764 0 .5-.2236.5-.5v-1c0-.2764-.2236-.5-.5-.5s-.5.2236-.5.5v1c0 .2764.2236.5.5.5z"></path><path d="m3 20.4834c.2764 0 .5-.2236.5-.5v-1c0-.2764-.2236-.5-.5-.5s-.5.2236-.5.5v1c0 .2764.2236.5.5.5z"></path><path d="m3 23.4834c.2764 0 .5-.2236.5-.5v-1c0-.2764-.2236-.5-.5-.5s-.5.2236-.5.5v1c0 .2764.2236.5.5.5z"></path><path d="m3 29.4834c.2764 0 .5-.2236.5-.5v-1c0-.2764-.2236-.5-.5-.5s-.5.2236-.5.5v1c0 .2764.2236.5.5.5z"></path><path d="m3 44.4834c.2764 0 .5-.2236.5-.5v-1c0-.2764-.2236-.5-.5-.5s-.5.2236-.5.5v1c0 .2764.2236.5.5.5z"></path><path d="m3 35.4834c.2764 0 .5-.2236.5-.5v-1c0-.2764-.2236-.5-.5-.5s-.5.2236-.5.5v1c0 .2764.2236.5.5.5z"></path><path d="m3 38.4834c.2764 0 .5-.2236.5-.5v-1c0-.2764-.2236-.5-.5-.5s-.5.2236-.5.5v1c0 .2764.2236.5.5.5z"></path><path d="m3 41.4834c.2764 0 .5-.2236.5-.5v-1c0-.2764-.2236-.5-.5-.5s-.5.2236-.5.5v1c0 .2764.2236.5.5.5z"></path><path d="m8.625 12.3662c.0586 0 .1191-.0107.1768-.0322l.9355-.3545c.2588-.0977.3887-.3867.291-.6445-.0986-.2588-.3877-.3857-.6445-.291l-.9355.3545c-.2588.0977-.3887.3867-.291.6445.0762.2002.2656.3232.4678.3232z"></path><path d="m22.6504 7.0469c.0596 0 .1191-.0107.1777-.0322l.9346-.3555c.2578-.0986.3877-.3877.29-.6455-.0986-.2588-.3887-.3838-.6455-.29l-.9346.3555c-.2578.0986-.3877.3877-.29.6455.0762.1992.2666.3223.4678.3223z"></path><path d="m25.4551 5.9824c.0586 0 .1191-.0107.1777-.0322l.9346-.3545c.2578-.0986.3877-.3867.29-.6455-.0986-.2578-.3867-.3857-.6455-.29l-.9346.3545c-.2578.0986-.3877.3867-.29.6455.0762.1992.2666.3223.4678.3223z"></path><path d="m19.8447 8.1104c.0586 0 .1191-.0107.1768-.0322l.9355-.3545c.2588-.0977.3887-.3867.291-.6445-.0986-.2588-.3887-.3867-.6445-.291l-.9355.3545c-.2588.0977-.3887.3867-.291.6445.0762.2002.2656.3232.4678.3232z"></path><path d="m28.2598 4.9189c.0596 0 .1191-.0107.1777-.0322l.9355-.3555c.2578-.0986.3877-.3877.29-.6455-.0986-.2578-.3887-.3848-.6455-.29l-.9355.3555c-.2578.0986-.3877.3877-.29.6455.0762.1992.2666.3223.4678.3223z"></path><path d="m14.2354 10.2383c.0586 0 .1191-.0107.1777-.0322l.9346-.3545c.2578-.0986.3877-.3867.29-.6455-.0986-.2578-.3867-.3857-.6455-.29l-.9346.3545c-.2578.0986-.3877.3867-.29.6455.0762.1992.2666.3223.4678.3223z"></path><path d="m11.4297 11.3027c.0596 0 .1191-.0107.1777-.0322l.9355-.3555c.2578-.0986.3877-.3877.29-.6455-.0986-.2578-.3896-.3848-.6455-.29l-.9355.3555c-.2578.0986-.3877.3877-.29.6455.0762.1992.2666.3223.4678.3223z"></path><path d="m17.04 9.1748c.0596 0 .1191-.0107.1777-.0322l.9346-.3555c.2578-.0986.3877-.3877.29-.6455-.0986-.2578-.3887-.3838-.6455-.29l-.9346.3555c-.2578.0986-.3877.3877-.29.6455.0762.1992.2666.3223.4678.3223z"></path><path d="m5.8203 13.4307c.0596 0 .1191-.0107.1777-.0322l.9346-.3555c.2578-.0986.3877-.3877.29-.6455-.0986-.2588-.3896-.3838-.6455-.29l-.9346.3555c-.2578.0986-.3877.3877-.29.6455.0762.1992.2666.3223.4678.3223z"></path><path d="m3.0146 14.4941c.0586 0 .1191-.0107.1768-.0322l.9355-.3545c.2588-.0977.3887-.3867.291-.6445-.0986-.2588-.3877-.3867-.6445-.291l-.9355.3545c-.2588.0977-.3887.3867-.291.6445.0762.2002.2656.3232.4678.3232z"></path><path d="m8.5 17.7197v21.5898c0 .1699.0859.3271.2285.4199.082.0527.1768.0801.2715.0801.0693 0 .1396-.0146.2051-.0439l7-3.1396c.1797-.0801.2949-.2588.2949-.4561v-21.0996c0-.1641-.0811-.3184-.2158-.4111s-.3096-.1143-.4609-.0566l-7 2.6494c-.1943.0732-.3232.2598-.3232.4678zm1 .3457 6-2.2715v20.0527l-6 2.6904v-20.4717z"></path><path d="m19 35.3301c.0693 0 .1396-.0146.2051-.0439l7-3.1396c.1797-.0801.2949-.2588.2949-.4561v-20.4102c0-.1641-.0811-.3184-.2158-.4111-.1348-.0938-.3086-.1152-.4609-.0566l-7 2.6494c-.1943.0732-.3232.2598-.3232.4678v20.9004c0 .1699.0859.3271.2285.4199.082.0527.1768.0801.2715.0801zm.5-21.0547 6-2.2715v19.3633l-6 2.6904z"></path><path d="m10.7451 21.5c.168 0 .333-.085.4268-.2402l1.5312-2.5166c.1436-.2354.0693-.543-.167-.6865-.2344-.1436-.543-.0713-.6865.167l-1.5312 2.5166c-.1436.2354-.0693.543.167.6865.0811.0498.1709.0732.2598.0732z"></path><path d="m14.3633 18.7412c-.2383-.1436-.5449-.0654-.6855.1719l-3.1768 5.3135c-.1426.2373-.0645.5439.1719.6855.0811.0488.1689.0713.2568.0713.1699 0 .3359-.0869.4287-.2432l3.1768-5.3135c.1426-.2373.0645-.5439-.1719-.6855z"></path><path d="m20.8193 17.7646c.168 0 .333-.085.4268-.2402l1.5312-2.5166c.1436-.2354.0693-.543-.167-.6865-.2344-.1445-.5439-.0703-.6865.167l-1.5312 2.5166c-.1436.2354-.0693.543.167.6865.0811.0498.1709.0732.2598.0732z"></path><path d="m24.4375 15.0059c-.2393-.1436-.5449-.0654-.6855.1719l-3.1768 5.3135c-.1426.2373-.0645.5439.1719.6855.0811.0488.1689.0713.2568.0713.1699 0 .3359-.0869.4287-.2432l3.1768-5.3135c.1426-.2373.0645-.5439-.1719-.6855z"></path></svg>