<svg xmlns="http://www.w3.org/2000/svg" viewBox="0 0 512 512"><g id="_x30_6_Living_Room"><g><path d="m470.626 327.072v-28.063c0-13.731-11.17-24.9-24.9-24.9h-129.558c-5 0-9.528 2.013-12.86 5.248-3.321-3.235-7.833-5.248-12.817-5.248h-129.557c-13.731 0-24.9 11.17-24.9 24.9v28.067c-13.202 1.303-23.585 12.338-23.585 25.873v91.003c0 3.107 2.52 5.627 5.627 5.627h22.089l4.922 23.992c1.912 9.305 10.192 16.057 19.687 16.057s17.775-6.752 19.687-16.057l4.922-23.992h227.877l4.922 23.992c1.912 9.305 10.192 16.057 19.687 16.057 9.496 0 17.775-6.752 19.687-16.057l4.922-23.992h22.107c3.107 0 5.627-2.52 5.627-5.627v-91.003c-.001-13.188-9.717-24.499-23.586-25.877zm-154.458-41.71h129.557c7.525 0 13.646 6.122 13.646 13.646v29.3c-9.854 3.424-17.486 13.118-17.486 24.64v39.257h-132.959v-99.601c0-3.992 3.249-7.242 7.242-7.242zm-151.391 152.963c0-1.413 0-35.635 0-34.865h277.109c0 .798 0 37.035 0 34.865zm-17.489-139.316c0-7.525 6.122-13.646 13.646-13.646h129.557c3.96 0 7.18 3.249 7.18 7.243v99.601h-132.894v-39.257c0-11.72-7.636-21.141-17.489-24.655zm-23.586 53.94c0-8.202 6.675-14.877 14.881-14.877 7.388 0 14.939 5.913 14.939 14.877 0 3.136 0 86.554 0 85.376h-29.82zm49.732 118.358c-.839 4.096-4.48 7.067-8.66 7.067s-7.821-2.971-8.66-7.067l-4.455-21.706h26.23zm277.094 0c-.839 4.096-4.48 7.067-8.66 7.067s-7.821-2.971-8.66-7.067l-4.455-21.706h26.23zm32.429-32.982h-29.817c0-.79 0-41.982 0-40.492v-44.884c0-6.957 4.737-12.906 11.624-14.493 8.947-2.242 18.193 4.756 18.193 14.493z"></path><path d="m23.416 442.762c-3.107 0-5.627 2.52-5.627 5.627s2.52 5.627 5.627 5.627h57.157c3.107 0 5.627-2.52 5.627-5.627s-2.52-5.627-5.627-5.627h-22.915v-209.982c16.158-2.703 28.542-16.686 28.542-33.6 0-16.95-12.384-30.962-28.542-33.672v-84.997c0-25.853 21.032-46.885 46.885-46.885h14.236c25.023 0 45.469 19.719 46.76 44.426h-40.235c-3.107 0-5.627 2.52-5.627 5.627v2.912c0 26.336 21.424 47.76 47.76 47.76h5.774c26.336 0 47.76-21.424 47.76-47.76v-2.912c0-3.107-2.52-5.627-5.627-5.627h-38.55c-1.302-30.914-26.785-55.681-58.014-55.681h-14.236c-32.059 0-58.139 26.08-58.139 58.139v84.997c-16.198 2.705-28.615 16.719-28.615 33.673 0 16.918 12.417 30.902 28.615 33.601v209.981zm149.794-319.664h-5.774c-19.218 0-35.011-14.925-36.407-33.792h78.588c-1.395 18.867-17.189 33.792-36.407 33.792zm-144.167 76.082c0-12.675 10.313-22.988 22.988-22.988 12.635 0 22.915 10.313 22.915 22.988 0 12.635-10.28 22.915-22.915 22.915-12.675 0-22.988-10.28-22.988-22.915z"></path></g></g><g id="Layer_1"></g></svg>