<svg xmlns="http://www.w3.org/2000/svg" id="Bahan" viewBox="0 0 64 64"><path d="m40.65 43.349v-7.386a2.457 2.457 0 0 0 -2.45-2.455h-3.52a1 1 0 0 0 0 2h3.52a.449.449 0 0 1 .454.455v7.386a3.179 3.179 0 0 0 -3.128 3.121h-23.016a3.179 3.179 0 0 0 -3.128-3.121v-7.386a.45.45 0 0 1 .454-.455h21.831a1 1 0 0 0 0-2h-21.831a2.457 2.457 0 0 0 -2.454 2.455v7.386a3.186 3.186 0 0 0 -3.133 3.176v10.69a1 1 0 0 0 1 1h9.88a1 1 0 0 0 0-2h-2.613v-7.745h23v7.745h-17.373a1 1 0 0 0 0 2h24.633a1 1 0 0 0 1-1v-10.69a3.182 3.182 0 0 0 -3.126-3.176zm-34.401 12.866v-9.69a1.2 1.2 0 0 1 1.188-1.181h1.9a1.183 1.183 0 0 1 1.182 1.181v9.69zm31.268-9.69a1.183 1.183 0 0 1 1.183-1.181h1.9a1.183 1.183 0 0 1 1.181 1.181v9.69h-4.264z"></path><path d="m5.578 26.831h25.784a1 1 0 0 0 1-1v-19.046a1 1 0 0 0 -1-1h-25.784a1 1 0 0 0 -1 1v19.046a1 1 0 0 0 1 1zm1-2v-4.212l6.182-4.982 6.6 7.848a1 1 0 0 0 .766.357 1.007 1.007 0 0 0 .774-1.642l-2.308-2.742 1.825-1.566c.984 1.214 3.5 4.348 4.51 5.608a1 1 0 1 0 1.56-1.25l-2.473-3.08 4.138-3.719 2.214 2.581v6.8zm23.784-17.046v7.173l-1.362-1.588a1.007 1.007 0 0 0 -1.428-.092l-4.817 4.329c-.795-.734-1.539-2.841-2.859-1.908l-2.6 2.227-3.637-4.326a1 1 0 0 0 -1.392-.134l-5.689 4.584v-10.265z"></path><path d="m19 14.21a2.948 2.948 0 0 0 0-5.9 2.948 2.948 0 0 0 0 5.9zm0-3.9a.948.948 0 0 1 0 1.9.948.948 0 0 1 0-1.896z"></path><path d="m47.94 37.83a1.008 1.008 0 0 0 .38-1.93 1.008 1.008 0 1 0 -.38 1.93z"></path><path d="m59.714 26.76a.985.985 0 0 0 -.041-.575l-4.3-12.268a1.072 1.072 0 0 0 -.945-.666h-5.575a.961.961 0 0 0 -.662.263 1.334 1.334 0 0 0 -.271.376l-4.73 12.323a1.018 1.018 0 0 0 .934 1.361h2.815v6.7a1 1 0 0 0 2 0v-6.7h1.5v24.7h-1.847a2.937 2.937 0 0 0 0 5.873h5.691a2.937 2.937 0 0 0 0-5.873h-1.847v-24.7h6.315a1 1 0 0 0 .963-.814zm-4.523 28.476a.909.909 0 0 1 -.908.908h-5.691a.938.938 0 0 1 0-1.873h2.856 2.835a.923.923 0 0 1 .908.965zm-9.613-29.662 3.962-10.324h4.177l3.622 10.324z"></path></svg>