<svg xmlns="http://www.w3.org/2000/svg" id="Layer_1" height="512" viewBox="0 0 100.25 100.25" width="512"><g><path d="m45 8.75c0-.829-.671-1.5-1.5-1.5h-30c-.829 0-1.5.671-1.5 1.5v63.188c0 8.994 7.317 16.312 16.311 16.312h.354c9.007 0 16.335-7.327 16.335-16.334zm-30 19.5h27v28h-27zm27-18v15h-27v-15zm-13.334 75h-.354c-7.341 0-13.312-5.972-13.312-13.312v-12.688h27v12.666c0 7.353-5.982 13.334-13.334 13.334z"></path><path d="m50.364 69.624c.292.288.672.432 1.053.432.388 0 .774-.149 1.068-.446l30.253-30.672c.575-.584.575-1.522 0-2.106l-20.444-20.729c-.564-.572-1.572-.571-2.137 0l-9.808 9.945c-.582.59-.575 1.54.015 2.121.588.581 1.539.575 2.122-.015l8.74-8.862 18.338 18.591-29.215 29.619c-.582.59-.575 1.54.015 2.122z"></path><path d="m90.5 57.25h-21c-.828 0-1.5.672-1.5 1.5s.672 1.5 1.5 1.5h19.5v27h-44.5c-.829 0-1.5.672-1.5 1.5s.671 1.5 1.5 1.5h46c.828 0 1.5-.672 1.5-1.5v-30c0-.828-.672-1.5-1.5-1.5z"></path><path d="m28.5 67.25c-3.033 0-5.5 2.468-5.5 5.5s2.467 5.5 5.5 5.5 5.5-2.468 5.5-5.5-2.467-5.5-5.5-5.5zm0 8c-1.378 0-2.5-1.121-2.5-2.5s1.122-2.5 2.5-2.5 2.5 1.121 2.5 2.5-1.122 2.5-2.5 2.5z"></path></g></svg>